<svg width="25" height="26" viewBox="0 0 25 26" fill="none" xmlns="http://www.w3.org/2000/svg">
<path fill-rule="evenodd" clip-rule="evenodd" d="M6.2335 0.807861H5.00466C3.62273 0.807861 2.50244 2.02919 2.50244 3.53577V22.6312C2.50244 24.1378 3.62272 25.3591 5.00466 25.3591H17.5157C18.8977 25.3591 20.018 24.1378 20.018 22.6312V3.53577C20.018 2.02919 18.8977 0.807861 17.5157 0.807861H16.2424V2.38361C16.2424 3.32522 15.5422 4.08855 14.6785 4.08855C13.8148 4.08855 13.1146 3.32522 13.1146 2.38361V0.807861H9.36127V2.38361C9.36127 3.32522 8.66109 4.08855 7.79738 4.08855C6.93368 4.08855 6.2335 3.32522 6.2335 2.38361V0.807861ZM6.2335 8.18042C6.2335 7.80376 6.51356 7.49844 6.85905 7.49844H15.6168C15.9623 7.49844 16.2424 7.80376 16.2424 8.18042C16.2424 8.55708 15.9623 8.8624 15.6168 8.8624H6.85905C6.51356 8.8624 6.2335 8.55708 6.2335 8.18042ZM6.88126 11.0376C6.53583 11.0376 6.2557 11.3429 6.2557 11.7195C6.2557 12.0961 6.53583 12.4015 6.88126 12.4015H15.639C15.9845 12.4015 16.2646 12.0961 16.2646 11.7195C16.2646 11.3429 15.9845 11.0376 15.639 11.0376H6.88126ZM6.2557 15.1294C6.2557 14.7528 6.53583 14.4475 6.88126 14.4475H15.639C15.9845 14.4475 16.2646 14.7528 16.2646 15.1294C16.2646 15.506 15.9845 15.8114 15.639 15.8114H6.88126C6.53583 15.8114 6.2557 15.506 6.2557 15.1294ZM6.88126 17.8946C6.53583 17.8946 6.2557 18.2 6.2557 18.5766C6.2557 18.9532 6.53583 19.2585 6.88126 19.2585H11.8857C12.2312 19.2585 12.5112 18.9532 12.5112 18.5766C12.5112 18.2 12.2312 17.8946 11.8857 17.8946H6.88126Z" fill="black" fill-opacity="0.8"/>
<path d="M0.625561 1.90955C0.971048 1.90955 1.25111 2.21488 1.25111 2.59152L1.25111 21.034C1.25111 22.9172 2.65146 24.4439 4.37885 24.4439H16.3049C16.6503 24.4439 16.9304 24.7492 16.9304 25.1258C16.9304 25.5024 16.6503 25.8078 16.3049 25.8078H4.37885C1.96049 25.8078 0 23.6704 0 21.034L6.26404e-06 2.59152C6.26404e-06 2.21488 0.280079 1.90955 0.625561 1.90955Z" fill="#333333" fill-opacity="0.8"/>
<path d="M24.9999 6.31616H21.2466V18.5918L23.1232 21.3197L24.9999 18.5918V6.31616Z" fill="#333333" fill-opacity="0.8"/>
</svg>
