<svg width="48" height="48" viewBox="0 0 48 48" fill="none" xmlns="http://www.w3.org/2000/svg">
<ellipse cx="24" cy="23.5102" rx="24" ry="23.5102" fill="#2B81BD"/>
<path d="M19.2917 31.472C18.1459 31.472 17.2188 32.5456 17.2188 33.8577C17.2188 35.1699 18.1459 36.2435 19.2917 36.2435C20.4376 36.2435 21.3751 35.1699 21.3751 33.8577C21.3751 32.5456 20.4376 31.472 19.2917 31.472ZM13.0417 12.3857V14.7715H15.1251L18.8751 23.8255L17.4688 26.7481C17.3022 27.0821 17.2084 27.4758 17.2084 27.8933C17.2084 29.2055 18.1459 30.2791 19.2917 30.2791H31.7917V27.8933H19.7292C19.5834 27.8933 19.4688 27.7621 19.4688 27.5951L19.5001 27.4519L20.4376 25.5075H28.198C28.9792 25.5075 29.6667 25.0184 30.0209 24.2788L33.7501 16.537C33.8334 16.37 33.8751 16.1672 33.8751 15.9644C33.8751 15.3083 33.4063 14.7715 32.8334 14.7715H17.4272L16.448 12.3857H13.0417ZM29.7084 31.472C28.5626 31.472 27.6355 32.5456 27.6355 33.8577C27.6355 35.1699 28.5626 36.2435 29.7084 36.2435C30.8542 36.2435 31.7917 35.1699 31.7917 33.8577C31.7917 32.5456 30.8542 31.472 29.7084 31.472Z" fill="white"/>
</svg>
