<svg width="25" height="26" viewBox="0 0 25 26" fill="none" xmlns="http://www.w3.org/2000/svg">
<path d="M12.5 0.517578C5.59476 0.517578 0 6.11234 0 13.0176C0 19.9228 5.59476 25.5176 12.5 25.5176C19.4052 25.5176 25 19.9228 25 13.0176C25 6.11234 19.4052 0.517578 12.5 0.517578ZM12.5 5.35629C14.9496 5.35629 16.9355 7.34218 16.9355 9.79177C16.9355 12.2414 14.9496 14.2273 12.5 14.2273C10.0504 14.2273 8.06452 12.2414 8.06452 9.79177C8.06452 7.34218 10.0504 5.35629 12.5 5.35629ZM12.5 22.695C9.54133 22.695 6.89012 21.3543 5.11593 19.2575C6.06351 17.4732 7.91835 16.2434 10.0806 16.2434C10.2016 16.2434 10.3226 16.2635 10.4385 16.2988C11.0938 16.5105 11.7792 16.6466 12.5 16.6466C13.2208 16.6466 13.9113 16.5105 14.5615 16.2988C14.6774 16.2635 14.7984 16.2434 14.9194 16.2434C17.0817 16.2434 18.9365 17.4732 19.8841 19.2575C18.1099 21.3543 15.4587 22.695 12.5 22.695Z" fill="black" fill-opacity="0.8"/>
</svg>
