<svg width="25" height="25" viewBox="0 0 25 25" fill="none" xmlns="http://www.w3.org/2000/svg">
<path d="M24.4324 6.20194L21.7982 1.38644C21.5628 0.954155 21.1447 0.689209 20.6982 0.689209H4.30018C3.85369 0.689209 3.43563 0.954155 3.20021 1.38644L0.565965 6.20194C-0.793775 8.68872 0.411726 12.147 2.95261 12.5421C3.13527 12.5699 3.32198 12.5839 3.50869 12.5839C4.71013 12.5839 5.77357 11.9796 6.50417 11.0453C7.23478 11.9796 8.30228 12.5839 9.49966 12.5839C10.7011 12.5839 11.7645 11.9796 12.4951 11.0453C13.2258 11.9796 14.2933 12.5839 15.4906 12.5839C16.6921 12.5839 17.7555 11.9796 18.4861 11.0453C19.2208 11.9796 20.2842 12.5839 21.4816 12.5839C21.6724 12.5839 21.855 12.5699 22.0377 12.5421C24.5867 12.1516 25.7962 8.69337 24.4324 6.20194ZM21.4897 14.076C21.0838 14.076 20.682 14.0062 20.2923 13.8993V18.5382H4.70607V13.8993C4.31641 14.0016 3.91458 14.076 3.50869 14.076C3.26515 14.076 3.01756 14.0574 2.77808 14.0202C2.55078 13.983 2.32754 13.9226 2.11242 13.8528V23.0004C2.11242 23.8232 2.69284 24.4879 3.41127 24.4879H21.5953C22.3137 24.4879 22.8941 23.8232 22.8941 23.0004V13.8528C22.6749 13.9272 22.4558 13.9876 22.2285 14.0202C21.9809 14.0574 21.7373 14.076 21.4897 14.076Z" fill="black" fill-opacity="0.8"/>
</svg>
